<?xml version="1.0" encoding="UTF-8"?>
<svg version="1.1" xmlns="http://www.w3.org/2000/svg" width="512" height="512">
<path d="M0 0 C1.09233297 -0.06520977 2.18466593 -0.13041955 3.3100999 -0.19760537 C6.98110052 -0.41205376 10.65271578 -0.61156875 14.32466125 -0.80914307 C15.61107325 -0.88086731 16.89748524 -0.95259155 18.22287941 -1.02648926 C43.09973244 -2.41074767 67.99055582 -3.26838286 92.89664583 -3.9171841 C97.00295121 -4.02434242 101.10914629 -4.13528407 105.21528625 -4.24859619 C106.03220417 -4.27107313 106.84912209 -4.29355006 107.6907951 -4.31670812 C119.11053476 -4.63928259 130.50101891 -5.1793959 141.90221095 -5.90146585 C262.29600175 -13.52350481 262.29600175 -13.52350481 305.25591531 23.72984478 C311.66150103 29.39551358 317.69591829 35.40749786 323.617219 41.57343042 C325.04765618 43.05960113 326.48839004 44.5351006 327.93162131 46.00883961 C353.71368523 72.45202156 367.7493973 97.7355015 367.60681915 135.21656227 C367.26937161 150.25515335 365.31199094 165.12458514 362.29853821 179.84613037 C370.27820648 166.18427052 378.24217664 152.51464633 386.12275696 138.79534912 C387.84173077 135.80858552 389.56885917 132.82670392 391.29853821 129.84613037 C391.83535217 128.90994873 392.37216614 127.97376709 392.92524719 127.00921631 C393.43901917 126.12781982 393.95279114 125.24642334 394.48213196 124.33831787 C394.92871155 123.5660083 395.37529114 122.79369873 395.83540344 121.99798584 C399.39733654 116.75939443 404.23044711 112.72393507 410.29853821 110.84613037 C422.13811439 109.49748204 430.81233511 111.13976866 440.45088196 118.48675537 C446.82790234 124.25708248 449.46825097 130.84380824 450.11103821 139.34613037 C449.80730792 147.97943362 446.12473113 154.15161923 441.77900696 161.38079834 C440.1935892 164.02089539 438.64983438 166.68251316 437.11103821 169.35003662 C434.76858432 173.40104424 432.40949038 177.4416537 430.03681946 181.47503662 C426.27732857 187.8707979 422.56397032 194.29249594 418.86103821 200.72113037 C418.23890442 201.80063965 417.61677063 202.88014893 416.9757843 203.99237061 C415.71355988 206.18277787 414.45151583 208.37328909 413.18965149 210.56390381 C409.43825797 217.07484294 405.68162826 223.58276231 401.92597961 230.09124756 C398.78671575 235.53198373 395.64872324 240.97344514 392.51338196 246.41644287 C385.69632297 258.24738985 378.85740484 270.06465532 371.95259094 281.84466553 C371.1454364 283.22404297 371.1454364 283.22404297 370.32197571 284.63128662 C369.85710754 285.42414063 369.39223938 286.21699463 368.9132843 287.03387451 C368.38041809 287.96191895 367.84755188 288.88996338 367.29853821 289.84613037 C366.68972242 290.63348965 366.68972242 290.63348965 366.06860733 291.43675518 C360.64962274 299.26252333 361.61538372 308.31365864 361.6867218 317.41351318 C361.68317733 319.29833502 361.67739596 321.18315378 361.66955566 323.06796265 C361.6574105 327.11295069 361.66080379 331.15751637 361.67638779 335.20249176 C361.70075374 341.59804628 361.6891906 347.9932327 361.67271423 354.38879395 C361.64825467 365.65143995 361.65401114 376.91391753 361.66651917 388.17657471 C361.68512899 405.14686594 361.68027739 422.11712586 361.64648497 439.08739352 C361.63496597 445.4460803 361.63941588 451.80449851 361.65650535 458.16317034 C361.66439493 462.11419208 361.66015733 466.06513537 361.65279579 470.01615524 C361.65198468 471.84915818 361.65634638 473.68217174 361.66623878 475.51514816 C361.67908288 478.01577895 361.67359418 480.5157288 361.66362 483.01635742 C361.67187817 483.74271621 361.68013634 484.469075 361.68864477 485.21744466 C361.64710899 489.60507675 361.15202141 492.45966406 358.29853821 495.84613037 C354.01423998 498.3914427 350.86731014 499.22145222 345.90790558 499.22365379 C344.63518689 499.23147704 343.36246819 499.23930028 342.05118227 499.24736059 C340.64628758 499.240875 339.24139418 499.23410505 337.83650208 499.2270813 C336.3382939 499.23053878 334.84008827 499.23530395 333.34188795 499.24126303 C329.22818715 499.25379038 325.11469506 499.24759479 321.00099349 499.23830438 C316.5633005 499.23152133 312.1256436 499.24199142 307.68795776 499.25024414 C298.99581938 499.26359161 290.30375865 499.26069922 281.61161721 499.25200622 C274.54801745 499.24523407 267.48443947 499.24431092 260.4208374 499.24757767 C259.41592655 499.24803737 258.4110157 499.24849707 257.375653 499.24897069 C255.33426558 499.24992986 253.29287817 499.2509025 251.25149077 499.25188847 C232.10448853 499.26044533 212.95752936 499.25060358 193.81053418 499.23448737 C177.37764025 499.22108392 160.9448099 499.22341193 144.51191711 499.23724365 C125.43393739 499.25329422 106.35599543 499.25962133 87.27800989 499.25040686 C85.24408627 499.2494512 83.21016265 499.24850809 81.17623901 499.24757767 C80.17548119 499.24711484 79.17472336 499.24665201 78.14363953 499.24617516 C71.0876328 499.24358371 64.03165 499.24795963 56.97564697 499.25501633 C48.3780118 499.26342571 39.78045882 499.26116301 31.18283308 499.2451741 C26.79527473 499.23728382 22.40785346 499.23421266 18.0202961 499.24412155 C14.00470773 499.2530533 9.98938366 499.24816079 5.97381932 499.2321889 C4.52033756 499.22883464 3.06683353 499.23054965 1.61336607 499.23781626 C-0.36135028 499.24693239 -2.33612908 499.23579203 -4.31082916 499.22365379 C-5.95659478 499.22292321 -5.95659478 499.22292321 -7.6356082 499.22217786 C-12.37342712 498.64105262 -15.5662169 497.28273202 -18.55339032 493.50259763 C-19.826859 490.55597982 -20.07444754 488.54325556 -20.07060528 485.34265423 C-20.079565 483.69226714 -20.079565 483.69226714 -20.08870572 482.0085389 C-20.07559793 480.20358499 -20.07559793 480.20358499 -20.06222534 478.36216736 C-20.06478862 477.07974335 -20.06735189 475.79731933 -20.06999284 474.47603399 C-20.07670113 470.91853633 -20.0647006 467.36130961 -20.04965866 463.80384648 C-20.03670743 459.96681614 -20.04108711 456.12980117 -20.04336548 452.29275513 C-20.04493879 445.64551865 -20.03552353 438.9983705 -20.01865196 432.35115623 C-19.99427439 422.74040604 -19.98645796 413.12969857 -19.98268799 403.51892082 C-19.97612156 387.92622492 -19.95615518 372.3335761 -19.92778015 356.74090576 C-19.90024455 341.59377274 -19.87900853 326.44665251 -19.86625671 311.29949951 C-19.86507446 309.89907551 -19.86507446 309.89907551 -19.86386832 308.47036012 C-19.85995322 303.78669907 -19.85616209 299.10303793 -19.85243261 294.41937673 C-19.82133072 255.56159498 -19.76848969 216.70386578 -19.70146179 177.84613037 C-21.19927185 177.86969604 -21.19927185 177.86969604 -22.7273407 177.89373779 C-26.45089066 177.94825657 -30.17440569 177.98255971 -33.89823914 178.01092529 C-35.50637252 178.02596213 -37.11446523 178.04639709 -38.72245789 178.07244873 C-41.04108243 178.10905859 -43.35916228 178.12590759 -45.67802429 178.13909912 C-46.74713547 178.16232491 -46.74713547 178.16232491 -47.83784485 178.1860199 C-52.5417432 178.18758677 -55.68242815 177.26942759 -59.70146179 174.84613037 C-61.25419915 173.29339301 -60.84012046 171.81437316 -60.85536194 169.6526947 C-60.8639624 168.74837204 -60.87256287 167.84404938 -60.88142395 166.912323 C-60.8856839 165.91232269 -60.88994385 164.91232239 -60.89433289 163.88201904 C-60.90251038 162.83491257 -60.91068787 161.78780609 -60.91911316 160.70896912 C-60.94402276 157.22735171 -60.96049688 153.7457752 -60.97489929 150.26409912 C-60.98022297 149.07849207 -60.98554665 147.89288502 -60.99103165 146.67135048 C-61.01778668 140.39685334 -61.03715456 134.12237626 -61.05155945 127.84783936 C-61.06821824 121.35405952 -61.11300029 114.86078612 -61.16393089 108.36719799 C-61.19752444 103.38557832 -61.20912826 98.40408001 -61.21478653 93.42235756 C-61.22152023 91.02808064 -61.23679673 88.63381229 -61.26067734 86.239645 C-61.29216306 82.89214743 -61.29239014 79.54603098 -61.28495789 76.19842529 C-61.30136322 75.20449768 -61.31776855 74.21057007 -61.33467102 73.18652344 C-61.27372774 66.49925317 -61.27372774 66.49925317 -58.40701294 63.22749329 C-54.71632309 61.34315187 -51.38202555 61.34589362 -47.33818054 61.45550537 C-46.15020622 61.46399506 -46.15020622 61.46399506 -44.93823242 61.47265625 C-42.42118085 61.49495729 -39.90557936 61.54513898 -37.38896179 61.59613037 C-35.67739388 61.61620362 -33.96580355 61.63445295 -32.25419617 61.65081787 C-28.06939695 61.69480112 -23.88567479 61.76378268 -19.70146179 61.84613037 C-19.71034424 61.195466 -19.71922668 60.54480164 -19.7283783 59.87442017 C-19.81697013 53.09359535 -19.87724552 46.31293533 -19.92118835 39.53167725 C-19.94128584 37.0019869 -19.96856847 34.47234291 -20.0032196 31.94281006 C-20.05181735 28.3036962 -20.07444991 24.66519737 -20.09208679 21.02581787 C-20.1230545 19.33330399 -20.1230545 19.33330399 -20.15464783 17.6065979 C-20.1564063 11.43326184 -20.10107591 7.39127163 -15.70146179 2.84613037 C-10.83992571 0.14996903 -5.42397296 0.29510016 0 0 Z " fill="#E7EFFD" transform="translate(60.70146179199219,5.15386962890625)"/>
<path d="M0 0 C1.04951169 -0.00623996 2.09902337 -0.01247993 3.18033844 -0.01890898 C6.70265218 -0.03488384 10.22427822 -0.02221657 13.74659729 -0.00964355 C16.26959131 -0.01506268 18.79258217 -0.02218415 21.31556702 -0.03088379 C27.46051611 -0.04724835 33.60520989 -0.04482737 39.75016242 -0.03323323 C44.7447643 -0.02419974 49.73931143 -0.02297453 54.73391914 -0.02732849 C55.80020622 -0.02824789 55.80020622 -0.02824789 56.88803445 -0.02918586 C58.33214141 -0.03046477 59.77624835 -0.03176162 61.22035528 -0.03307623 C74.76293183 -0.04448329 88.30540008 -0.03136681 101.84795887 -0.00987476 C113.4660814 0.00799251 125.08404405 0.00489547 136.7021637 -0.0135498 C150.19471576 -0.03496097 163.68717286 -0.04338058 177.17973953 -0.03110075 C178.61884024 -0.02982656 180.05794097 -0.02856908 181.4970417 -0.02732849 C182.55912739 -0.02640284 182.55912739 -0.02640284 183.64266936 -0.02545848 C188.63029681 -0.02200603 193.61786399 -0.02783175 198.6054821 -0.0372467 C205.32045492 -0.04964368 212.03507922 -0.04080394 218.75003815 -0.01766968 C221.21634227 -0.01237516 223.68267177 -0.01390897 226.14896584 -0.02272034 C229.51225299 -0.03362957 232.87456797 -0.01996667 236.23779297 0 C237.21687903 -0.00892289 238.1959651 -0.01784577 239.20472044 -0.02703905 C245.01658295 0.04001523 248.22288174 0.6997101 252.68238831 4.50793457 C256.45678701 8.91176816 256.11440775 13.45367164 256.08644104 18.97644043 C256.09673592 20.39685387 256.09673592 20.39685387 256.10723877 21.84596252 C256.12551861 24.97172094 256.12166749 28.096978 256.11598206 31.22277832 C256.1205433 33.39844425 256.1258487 35.57410873 256.13186646 37.74977112 C256.14079992 42.30846003 256.13837169 46.86697378 256.12843323 51.42565918 C256.11694374 57.26445658 256.13715395 63.1026492 256.16635036 68.94136715 C256.18470599 73.43412612 256.18442113 77.92674 256.17871284 82.41952705 C256.17855955 84.5720867 256.18461053 86.72465613 256.19700432 88.8771801 C256.21189997 91.88851619 256.20124719 94.89873286 256.18409729 97.91003418 C256.19376526 98.79697968 256.20343323 99.68392517 256.21339417 100.5977478 C256.14852889 106.04340862 255.34958846 109.21315412 251.68238831 113.50793457 C247.80490793 116.09292149 244.5820714 115.79681926 240.08447266 115.78640747 C239.19526644 115.79219987 238.30606023 115.79799227 237.38990837 115.8039602 C234.39678922 115.82102381 231.40382373 115.82384253 228.41065979 115.82678223 C226.26836263 115.83607825 224.12606911 115.84624643 221.98377991 115.85722351 C216.14509175 115.88463178 210.3064279 115.89971443 204.46769214 115.91265154 C198.33228487 115.92829983 192.19692641 115.95510409 186.06155396 115.98068237 C174.39719983 116.0275879 162.73283626 116.06424567 151.06843573 116.09735525 C137.93297735 116.13516859 124.79757261 116.18484109 111.66215789 116.2353394 C95.59391984 116.29674176 79.5256687 116.35474351 63.45739746 116.4067688 C62.3200691 116.41048717 61.18274074 116.41420553 60.01094788 116.41803658 C54.51884368 116.43546639 49.02675299 116.45035201 43.53462887 116.45977211 C41.46774216 116.4634889 39.40085557 116.46727364 37.33396912 116.47113037 C36.34109274 116.47296353 35.34821637 116.47479669 34.32525283 116.4766854 C28.76347341 116.49018105 23.20267821 116.52742606 17.64127129 116.59311688 C14.43076648 116.6302289 11.22021901 116.65699813 8.00960362 116.68250346 C6.56746081 116.6970485 5.12535969 116.71694358 3.68337524 116.74279523 C1.74839072 116.77741327 -0.18691703 116.79230449 -2.12216187 116.80612183 C-3.71523871 116.82827035 -3.71523871 116.82827035 -5.34049892 116.85086632 C-9.06073284 116.42233491 -12.60622554 115.21932072 -15.31761169 112.50793457 C-15.42386146 111.11322286 -15.46164982 109.71321707 -15.47151184 108.3144989 C-15.4801123 107.41017624 -15.48871277 106.50585358 -15.49757385 105.5741272 C-15.5018338 104.57412689 -15.50609375 103.57412659 -15.51048279 102.54382324 C-15.51866028 101.49671677 -15.52683777 100.44961029 -15.53526306 99.37077332 C-15.56017266 95.88915591 -15.57664678 92.4075794 -15.59104919 88.92590332 C-15.59637287 87.74029627 -15.60169655 86.55468922 -15.60718155 85.33315468 C-15.63393659 79.05865753 -15.65330447 72.78418046 -15.66770935 66.50964355 C-15.68436814 60.01586372 -15.72915019 53.52259032 -15.7800808 47.02900219 C-15.81367435 42.04738252 -15.82527817 37.06588421 -15.83093643 32.08416176 C-15.83767013 29.68988484 -15.85294664 27.29561649 -15.87682724 24.9014492 C-15.90831297 21.55395163 -15.90854004 18.20783518 -15.90110779 14.86022949 C-15.91751312 13.86630188 -15.93391846 12.87237427 -15.95082092 11.84832764 C-15.94250244 10.9355455 -15.93418396 10.02276337 -15.9256134 9.08232117 C-15.92892355 8.29087802 -15.9322337 7.49943487 -15.93564415 6.6840086 C-13.80936259 -0.80256599 -6.32267147 -0.05749059 0 0 Z " fill="#FC4760" transform="translate(15.317611694335938,66.4920654296875)"/>
<path d="M0 0 C6.69738811 4.62170904 11.47705655 9.73854764 13.55859375 17.765625 C15.61457839 29.21832817 11.74146832 36.81425304 6.0390625 46.30029297 C4.45364475 48.94039002 2.90988992 51.60200779 1.37109375 54.26953125 C-0.97136014 58.32053887 -3.33045408 62.36114833 -5.703125 66.39453125 C-9.46261589 72.79029253 -13.17597414 79.21199057 -16.87890625 85.640625 C-17.50104004 86.72013428 -18.12317383 87.79964355 -18.76416016 88.91186523 C-20.02638458 91.1022725 -21.28842862 93.29278372 -22.55029297 95.48339844 C-26.30168649 101.99433757 -30.05831619 108.50225694 -33.81396484 115.01074219 C-36.95322871 120.45147836 -40.09122122 125.89293977 -43.2265625 131.3359375 C-50.04362149 143.16688448 -56.88253961 154.98414994 -63.78735352 166.76416016 C-67.08018686 172.39140972 -70.304026 178.05016727 -73.44140625 183.765625 C-74.10140625 183.765625 -74.76140625 183.765625 -75.44140625 183.765625 C-75.71887695 184.49418701 -75.99634766 185.22274902 -76.28222656 185.97338867 C-77.3695629 188.59256848 -78.5903764 190.97685242 -79.98828125 193.44140625 C-80.49593018 194.33883545 -81.0035791 195.23626465 -81.52661133 196.16088867 C-82.07599365 197.12357666 -82.62537598 198.08626465 -83.19140625 199.078125 C-83.76850342 200.09430908 -84.34560059 201.11049316 -84.94018555 202.1574707 C-89.56585004 210.28124327 -94.26909586 218.35873049 -98.99487305 226.42456055 C-103.20724386 233.62250495 -107.35850807 240.85375743 -111.48461914 248.10131836 C-114.46178138 253.32757513 -117.45144292 258.5466845 -120.44140625 263.765625 C-121.07626953 264.87566895 -121.71113281 265.98571289 -122.36523438 267.12939453 C-124.15147468 270.24320811 -125.95039593 273.34929016 -127.75390625 276.453125 C-128.28701416 277.38592285 -128.82012207 278.3187207 -129.36938477 279.27978516 C-129.86365967 280.12460449 -130.35793457 280.96942383 -130.8671875 281.83984375 C-131.29427002 282.57807373 -131.72135254 283.31630371 -132.16137695 284.0769043 C-133.44140625 285.765625 -133.44140625 285.765625 -136.44140625 286.765625 C-139.06665039 285.58496094 -139.06665039 285.58496094 -142.2265625 283.75 C-142.79581451 283.42293564 -143.36506653 283.09587128 -143.9515686 282.75889587 C-145.80853652 281.68810369 -147.65633829 280.6025435 -149.50390625 279.515625 C-150.77222214 278.777851 -152.04085951 278.04062938 -153.30981445 277.30395508 C-156.45058707 275.47601411 -159.58283058 273.63402208 -162.71179199 271.78594971 C-164.30748933 270.84462455 -165.9060579 269.90817114 -167.50488281 268.97216797 C-170.0534729 267.47759096 -172.59342302 265.96980448 -175.12890625 264.453125 C-175.86955322 264.01645508 -176.6102002 263.57978516 -177.37329102 263.12988281 C-182.32418653 260.11728416 -182.32418653 260.11728416 -183.44140625 256.765625 C-182.4284668 254.39990234 -182.4284668 254.39990234 -180.828125 251.6015625 C-180.24490479 250.5710376 -179.66168457 249.5405127 -179.06079102 248.47875977 C-178.42326904 247.37717529 -177.78574707 246.27559082 -177.12890625 245.140625 C-176.48171631 244.00488037 -175.83452637 242.86913574 -175.16772461 241.69897461 C-170.87964206 234.19443128 -166.52253497 226.73075306 -162.11328125 219.296875 C-158.78138717 213.66694645 -155.51992952 207.9964333 -152.25390625 202.328125 C-151.61590088 201.22090088 -150.97789551 200.11367676 -150.32055664 198.97290039 C-149.01251148 196.70225432 -147.70465177 194.43150142 -146.39697266 192.16064453 C-143.24808571 186.6939252 -140.09457361 181.22987613 -136.94140625 175.765625 C-135.69138275 173.59897189 -134.44138278 171.43230521 -133.19140625 169.265625 C-125.69140625 156.265625 -118.19140625 143.265625 -110.69140625 130.265625 C-110.07217285 129.19223877 -109.45293945 128.11885254 -108.81494141 127.01293945 C-107.56999343 124.85512697 -106.32487735 122.69741147 -105.07958984 120.53979492 C-101.87587974 114.98845908 -98.67546995 109.43525959 -95.48046875 103.87890625 C-94.17598811 101.61186012 -92.87130363 99.34493128 -91.56640625 97.078125 C-90.93871338 95.98741699 -90.31102051 94.89670898 -89.66430664 93.77294922 C-85.69386519 86.89000605 -81.65086974 80.06107726 -77.46875 73.3046875 C-75.67869891 70.29732847 -74.14344053 67.18598282 -72.59765625 64.046875 C-69.64756105 58.08577227 -66.3956889 52.35927714 -63.00390625 46.640625 C-59.10091209 40.02413065 -55.21816905 33.40024323 -51.44140625 26.7109375 C-50.77679889 25.53911886 -50.1120055 24.36740572 -49.44702148 23.19580078 C-48.18414749 20.96645293 -46.92805731 18.7332437 -45.67993164 16.49560547 C-36.28272977 -0.02777535 -36.28272977 -0.02777535 -27.9921875 -3.6015625 C-18.12270083 -6.05004158 -8.80849145 -5.11537902 0 0 Z " fill="#FECA28" transform="translate(496.44140625,120.234375)"/>
<path d="M0 0 C72.6 0 145.2 0 220 0 C220 0.33 220 0.66 220 1 C153.34 1 86.68 1 18 1 C18.06130402 53.13188699 18.06130402 53.13188699 18.16015625 105.26367188 C18.17624901 112.28767837 18.19209256 119.31168537 18.20751953 126.33569336 C18.20946347 127.2160615 18.21140741 128.09642964 18.21341026 129.00347561 C18.24444707 143.22398861 18.26140998 157.44448547 18.27319422 171.66502597 C18.28559686 186.25468635 18.31307816 200.84426188 18.35461307 215.43386871 C18.37977393 224.4394399 18.3931154 233.44487043 18.39142957 242.45047728 C18.39139986 248.6225219 18.40599135 254.79442302 18.43216428 260.96641173 C18.44683979 264.5295647 18.45498817 268.09242338 18.44580269 271.6556015 C18.43601824 275.51637565 18.45698142 279.37663063 18.48101807 283.23735046 C18.47325765 284.36672506 18.46549723 285.49609965 18.45750165 286.65969771 C18.49872611 292.71843191 18.49872611 292.71843191 20.90743637 298.1726656 C24.32063649 301.15324785 26.33987873 301.12768066 30.80587959 301.1386652 C32.04995052 301.14413964 33.29402144 301.14961409 34.57579148 301.15525442 C35.96907617 301.15633076 37.36236094 301.15731543 38.75564575 301.15821838 C40.22580217 301.16278129 41.69595729 301.16778091 43.16611087 301.17318195 C47.2205496 301.18680342 51.27497992 301.19419297 55.32943559 301.20060861 C59.69618614 301.208595 64.06291907 301.22229881 68.42965698 301.23532104 C76.00016861 301.25710885 83.570682 301.27524489 91.14120865 301.29092598 C102.08702464 301.31360367 113.03282114 301.34174938 123.97862063 301.37124526 C141.73590126 301.41894698 159.49318984 301.46220415 177.25048828 301.50268555 C194.50374979 301.54202736 211.75700422 301.58345042 229.01025391 301.62768555 C230.07309888 301.63040982 231.13594386 301.63313409 232.23099627 301.63594092 C237.56278445 301.64962018 242.89457253 301.66334049 248.22636056 301.67708123 C292.48422563 301.79108653 336.742106 301.8978869 381 302 C381.08160748 303.89510699 381.13946459 305.79124504 381.1875 307.6875 C381.23970703 309.27111328 381.23970703 309.27111328 381.29296875 310.88671875 C380.95247577 314.5050241 380.28787213 316.18452633 378 319 C373.79954672 321.69511501 370.55377569 322.37532851 365.60936737 322.37752342 C364.33664868 322.38534666 363.06392999 322.39316991 361.75264406 322.40123022 C360.34774937 322.39474463 358.94285597 322.38797468 357.53796387 322.38095093 C356.03975569 322.3844084 354.54155006 322.38917358 353.04334974 322.39513266 C348.92964894 322.40766001 344.81615685 322.40146442 340.70245528 322.39217401 C336.2647623 322.38539096 331.82710539 322.39586105 327.38941956 322.40411377 C318.69728117 322.41746124 310.00522045 322.41456885 301.313079 322.40587585 C294.24947924 322.3991037 287.18590127 322.39818055 280.12229919 322.4014473 C279.11738834 322.401907 278.11247749 322.40236669 277.07711479 322.40284032 C275.03572738 322.40379949 272.99433997 322.40477213 270.95295256 322.4057581 C251.80595032 322.41431496 232.65899115 322.4044732 213.51199597 322.388357 C197.07910204 322.37495355 180.64627169 322.37728156 164.21337891 322.39111328 C145.13539918 322.40716385 126.05745722 322.41349096 106.97947168 322.40427649 C104.94554806 322.40332083 102.91162444 322.40237772 100.87770081 322.4014473 C99.87694298 322.40098447 98.87618515 322.40052164 97.84510133 322.40004479 C90.78909459 322.39745333 83.73311179 322.40182926 76.67710876 322.40888596 C68.0794736 322.41729534 59.48192061 322.41503264 50.88429487 322.39904372 C46.49673652 322.39115345 42.10931525 322.38808229 37.72175789 322.39799118 C33.70616953 322.40692293 29.69084545 322.40203042 25.67528111 322.38605852 C24.22179935 322.38270426 22.76829532 322.38441928 21.31482786 322.39168589 C19.34011152 322.40080202 17.36533271 322.38966166 15.39063263 322.37752342 C13.74486701 322.37679284 13.74486701 322.37679284 12.0658536 322.37604749 C7.32848973 321.79497806 4.13569978 320.4365787 1.14807147 316.65744334 C-0.1270966 313.70580924 -0.37298004 311.68698289 -0.36914349 308.48090649 C-0.37511663 307.37716503 -0.38108978 306.27342358 -0.38724393 305.13623542 C-0.37413614 303.32544508 -0.37413614 303.32544508 -0.36076355 301.47807312 C-0.36332682 300.19156555 -0.3658901 298.90505799 -0.36853105 297.57956535 C-0.37523947 294.01066645 -0.36323863 290.44203761 -0.34819686 286.87317312 C-0.33524583 283.02387273 -0.3396253 279.17458766 -0.34190369 275.32527161 C-0.34347701 268.65675433 -0.33406163 261.98832508 -0.31719017 255.31982994 C-0.29281276 245.67831068 -0.28499619 236.036834 -0.2812262 226.39528725 C-0.27465974 210.75267713 -0.25469329 195.11011394 -0.22631836 179.4675293 C-0.19878283 164.27189363 -0.17758117 149.07627077 -0.16479492 133.88061523 C-0.16399093 132.93445927 -0.16318694 131.98830331 -0.16235858 131.01347595 C-0.15612034 123.61395429 -0.15024956 116.21443235 -0.14449489 108.81491029 C-0.116192 72.54323046 -0.05583756 36.27166808 0 0 Z " fill="#C2CDE2" transform="translate(41,182)"/>
<path d="M0 0 C3.37545232 1.2908118 6.52594435 2.74776654 9.6875 4.49609375 C10.98300781 5.21055664 10.98300781 5.21055664 12.3046875 5.93945312 C13.19414062 6.43380859 14.08359375 6.92816406 15 7.4375 C15.88945312 7.92798828 16.77890625 8.41847656 17.6953125 8.92382812 C21.83939265 11.2154426 25.96460814 13.51991542 30 16 C28.37160894 22.18166287 25.05752905 27.31090634 21.8125 32.75 C20.53580222 34.91367549 19.25978329 37.07775166 17.984375 39.2421875 C17.32501953 40.35819336 16.66566406 41.47419922 15.98632812 42.62402344 C12.81074644 48.0212633 9.6862344 53.44764 6.5625 58.875 C5.30341652 61.05991376 4.04430177 63.24480949 2.78515625 65.4296875 C1.84760498 67.05729004 1.84760498 67.05729004 0.89111328 68.71777344 C-2.23680148 74.14659942 -5.36858448 79.57319281 -8.5 85 C-9.75001879 87.16665583 -11.00001878 89.3333225 -12.25 91.5 C-29.75 121.83333333 -47.25 152.16666667 -64.75 182.5 C-65.3694751 183.57386963 -65.9889502 184.64773926 -66.62719727 185.75415039 C-67.86947806 187.90721037 -69.11214988 190.06004478 -70.35522461 192.21264648 C-73.25836112 197.24101461 -76.15778867 202.27139814 -79.04275513 207.31021118 C-80.05877184 209.08432545 -81.07606928 210.85769919 -82.09375 212.63085938 C-83.36582292 214.84815314 -84.63552285 217.06681075 -85.90234375 219.28710938 C-89.38537955 225.35146171 -93.02848736 231.24280382 -97 237 C-103.42904674 236.07886225 -108.3060873 232.47150339 -113.75 229.125 C-114.81605469 228.48691406 -115.88210938 227.84882813 -116.98046875 227.19140625 C-117.99238281 226.57394531 -119.00429688 225.95648438 -120.046875 225.3203125 C-120.97338867 224.75586426 -121.89990234 224.19141602 -122.85449219 223.60986328 C-125 222 -125 222 -126 219 C-124.98706055 216.63427734 -124.98706055 216.63427734 -123.38671875 213.8359375 C-122.80349854 212.8054126 -122.22027832 211.7748877 -121.61938477 210.71313477 C-120.98186279 209.61155029 -120.34434082 208.50996582 -119.6875 207.375 C-119.04031006 206.23925537 -118.39312012 205.10351074 -117.72631836 203.93334961 C-113.43823581 196.42880628 -109.08112872 188.96512806 -104.671875 181.53125 C-101.33998092 175.90132145 -98.07852327 170.2308083 -94.8125 164.5625 C-94.17449463 163.45527588 -93.53648926 162.34805176 -92.87915039 161.20727539 C-91.57110523 158.93662932 -90.26324552 156.66587642 -88.95556641 154.39501953 C-85.80667946 148.9283002 -82.65316736 143.46425113 -79.5 138 C-78.2499765 135.83334689 -76.99997653 133.66668021 -75.75 131.5 C-68.25 118.5 -60.75 105.5 -53.25 92.5 C-52.6307666 91.42661377 -52.0115332 90.35322754 -51.37353516 89.24731445 C-50.12858718 87.08950197 -48.8834711 84.93178647 -47.63818359 82.77416992 C-44.43447349 77.22283408 -41.2340637 71.66963459 -38.0390625 66.11328125 C-36.73458186 63.84623512 -35.42989738 61.57930628 -34.125 59.3125 C-33.49730713 58.22179199 -32.86961426 57.13108398 -32.22290039 56.00732422 C-28.85746283 50.17318316 -25.44245231 44.37624944 -21.9375 38.625 C-19.48902701 34.60529968 -17.23006278 30.55610025 -15.1875 26.3125 C-10.78291884 17.18962107 -5.28037258 8.63408811 0 0 Z " fill="#F0B917" transform="translate(439,158)"/>
<path d="M0 0 C3.16477549 1.40104289 5.30293141 3.05188579 7.74591064 5.49194336 C8.8395845 6.57715775 8.8395845 6.57715775 9.95535278 7.68429565 C10.74513519 8.47812653 11.5349176 9.2719574 12.34863281 10.08984375 C13.18802399 10.92573029 14.02741516 11.76161682 14.89224243 12.62283325 C17.1891118 14.91241256 19.48142716 17.2064303 21.7714777 19.50282669 C24.16812411 21.90453879 26.56964874 24.301365 28.97039795 26.69897461 C32.99884478 30.72378487 37.02306027 34.75278977 41.04492188 38.78417969 C45.69913954 43.44929608 50.36053851 48.10714377 55.02570462 52.76130962 C59.02943421 56.75597516 63.02926803 60.7545101 67.0258472 64.75632954 C69.41363583 67.14724083 71.80276623 69.5367692 74.19541168 71.92282104 C76.85811266 74.58047081 79.51436472 77.24439888 82.16894531 79.91015625 C82.96682465 80.70398712 83.76470398 81.49781799 84.58676147 82.31570435 C85.30459808 83.0391806 86.02243469 83.76265686 86.76202393 84.50805664 C87.39102222 85.13780899 88.02002052 85.76756134 88.66807938 86.41639709 C90 88 90 88 90 90 C79.41227013 90.11593556 68.82469167 90.20473663 58.23645592 90.25906086 C53.31968107 90.28513615 48.40334102 90.32049643 43.48681641 90.37719727 C38.74056358 90.43159082 33.99472852 90.4614361 29.24818802 90.47438622 C27.43887379 90.48361293 25.62958201 90.50163093 23.82044601 90.52865028 C21.28262988 90.5650393 18.74653184 90.5699414 16.20849609 90.56762695 C15.46330719 90.58560333 14.71811829 90.60357971 13.9503479 90.62210083 C10.121487 90.58440867 7.58488494 90.05744777 4.61196899 87.71452332 C0.01000981 82.93187638 -0.29007477 79.62287445 -0.22705078 73.11035156 C-0.22734283 72.31972824 -0.22763489 71.52910492 -0.22793579 70.71452332 C-0.22654467 68.1064448 -0.21099379 65.49865349 -0.1953125 62.890625 C-0.19158159 61.08030351 -0.18873499 59.26998 -0.18673706 57.45965576 C-0.17910672 52.69865325 -0.15946334 47.93777308 -0.1373291 43.17681885 C-0.1168578 38.31711482 -0.10773259 33.45739099 -0.09765625 28.59765625 C-0.07621691 19.06505047 -0.04208815 9.53253541 0 0 Z " fill="#B5C2D9" transform="translate(331,7)"/>
<path d="M0 0 C0.89388127 -0.00384115 1.78776254 -0.00768229 2.70873111 -0.01163983 C3.69694184 -0.01077335 4.68515256 -0.00990687 5.70330906 -0.00901413 C7.27078139 -0.01347081 7.27078139 -0.01347081 8.86991984 -0.01801753 C12.39451478 -0.02673476 15.91907588 -0.02821531 19.44368076 -0.02970505 C21.96124437 -0.03433102 24.47880728 -0.03935537 26.99636936 -0.04475021 C33.8516059 -0.05789597 40.70683123 -0.06435956 47.56207824 -0.06876087 C51.83997678 -0.07152128 56.11787306 -0.07575822 60.39577007 -0.08026505 C72.2331217 -0.09245823 84.07047151 -0.10275793 95.90782928 -0.10614014 C96.66571284 -0.1063597 97.42359639 -0.10657927 98.20444611 -0.10680549 C98.96417022 -0.10702377 99.72389432 -0.10724204 100.50664037 -0.10746694 C102.04620071 -0.10791041 103.58576105 -0.10835697 105.12532139 -0.10880661 C106.27084056 -0.10913875 106.27084056 -0.10913875 107.43950153 -0.10947761 C119.82077301 -0.11342774 132.20198572 -0.13088806 144.58323448 -0.15416613 C157.28578403 -0.17785616 169.98830406 -0.19034089 182.69087607 -0.19150805 C189.82662377 -0.19242606 196.96229486 -0.19821 204.09802151 -0.21632767 C210.80630716 -0.23329975 217.51442224 -0.23499894 224.22273159 -0.22618866 C226.69030235 -0.22541447 229.15788073 -0.22981084 231.62543201 -0.23964691 C234.98319215 -0.2522508 238.3404266 -0.24655276 241.69818211 -0.23606491 C242.68416211 -0.24412132 243.67014211 -0.25217772 244.68600029 -0.26047826 C245.5824893 -0.25388841 246.47897832 -0.24729857 247.40263367 -0.24050903 C248.1780776 -0.24110612 248.95352153 -0.24170321 249.75246376 -0.24231839 C252.32320225 0.23527193 253.23288494 1.03683289 254.7642374 3.13142776 C254.6392374 6.19392776 254.6392374 6.19392776 253.7642374 9.13142776 C250.64252345 11.2125704 249.96400227 11.38192474 246.42104435 11.38590336 C245.52865543 11.39173555 244.63626651 11.39756775 243.7168355 11.40357667 C242.2447251 11.39790769 242.2447251 11.39790769 240.7428751 11.39212418 C239.70112267 11.39594972 238.65937024 11.39977527 237.58604956 11.40371674 C234.0783376 11.41407564 230.57078845 11.41004911 227.06306553 11.40608597 C224.5552057 11.41043081 222.04734721 11.41561318 219.5394907 11.42157364 C213.42475205 11.43360284 207.31007392 11.4361122 201.19532573 11.43377338 C196.22688201 11.43199217 191.25845163 11.4337356 186.2900095 11.43799782 C185.58356502 11.43859301 184.87712054 11.4391882 184.14926866 11.43980142 C182.71425545 11.44101314 181.27924225 11.44222727 179.84422904 11.4434438 C166.37999683 11.45432585 152.91578965 11.45215357 139.45155603 11.44605895 C127.12530922 11.44088795 114.7991414 11.45214887 102.47291023 11.47115717 C89.82456447 11.49051312 77.17625612 11.4987956 64.52789545 11.49503392 C57.4234679 11.49311862 50.31910761 11.49564142 43.21469212 11.50974846 C36.53675219 11.52287419 29.85899651 11.52043287 23.18104839 11.50733757 C20.72476811 11.50496081 18.26847683 11.50774547 15.81220913 11.51596069 C12.46981868 11.52633691 9.12796997 11.5184011 5.78559971 11.50564957 C4.80419278 11.51302385 3.82278584 11.52039814 2.81163931 11.52799588 C1.91925039 11.52078934 1.02686147 11.5135828 0.10743046 11.50615788 C-1.05036568 11.5062404 -1.05036568 11.5062404 -2.23155165 11.50632459 C-4.81150375 11.02373275 -5.7190359 10.25431853 -7.2357626 8.13142776 C-7.0482626 4.50642776 -7.0482626 4.50642776 -6.2357626 1.13142776 C-3.91464007 -0.0291335 -2.5841848 0.00415485 0 0 Z " fill="#B6C3DA" transform="translate(82.23576259613037,285.8685722351074)"/>
<path d="M0 0 C0.89177222 -0.00843994 1.78354444 -0.01687988 2.70234007 -0.02557558 C4.17342728 -0.01656051 4.17342728 -0.01656051 5.67423344 -0.00736332 C7.23580373 -0.01544163 7.23580373 -0.01544163 8.8289209 -0.02368313 C12.33436681 -0.0380465 15.83943955 -0.03083826 19.34490299 -0.023736 C21.85114186 -0.02943517 24.35737813 -0.03639766 26.86361027 -0.04453373 C32.97469827 -0.06065911 39.08564734 -0.06255563 45.19675022 -0.05732083 C50.16280731 -0.05328331 55.128834 -0.05471769 60.09488964 -0.06006908 C60.8010454 -0.06081751 61.50720115 -0.06156593 62.23475556 -0.06233703 C63.66920305 -0.06386847 65.10365052 -0.06540682 66.53809799 -0.066952 C79.99760349 -0.0806878 93.45705092 -0.07523183 106.91655511 -0.06376678 C119.23568607 -0.05383368 131.55466685 -0.06677443 143.87377464 -0.09070098 C156.51648333 -0.11507143 169.159122 -0.12470489 181.80185372 -0.11804825 C188.90241872 -0.11455139 196.0028682 -0.11681872 203.10341549 -0.13429928 C209.77894612 -0.15052931 216.45414341 -0.14587172 223.12968159 -0.12699413 C225.58392817 -0.12329357 228.03819581 -0.12645907 230.49242306 -0.13687992 C233.8346128 -0.14999086 237.17583616 -0.1386296 240.51798344 -0.12088871 C241.49647753 -0.13049372 242.47497162 -0.14009872 243.48311704 -0.14999479 C250.01069053 -0.07836584 250.01069053 -0.07836584 253.30126381 2.24757957 C254.65960026 4.38031673 254.65960026 4.38031673 254.53460026 7.00531673 C253.65960026 9.38031673 253.65960026 9.38031673 251.65960026 11.38031673 C249.77317578 11.63216573 249.77317578 11.63216573 247.42383766 11.63479233 C246.52995639 11.64062452 245.63607513 11.64645671 244.71510655 11.65246564 C243.72689583 11.64868632 242.7386851 11.64490699 241.7205286 11.64101315 C240.67554705 11.64483869 239.63056549 11.64866424 238.55391783 11.65260571 C235.02928064 11.66297878 231.50480506 11.65893541 227.9801569 11.65497494 C225.46259249 11.65931903 222.9450294 11.66450115 220.4274683 11.67046261 C214.28518705 11.68249922 208.14296603 11.68500007 202.00067527 11.68266235 C197.00980108 11.6808819 192.01894019 11.68262293 187.02806759 11.68688679 C185.9640346 11.68777957 185.9640346 11.68777957 184.87850599 11.68869039 C183.43761425 11.6899021 181.99672251 11.69111623 180.55583077 11.69233277 C167.03199139 11.70321836 153.50817692 11.70104102 139.98433613 11.69494792 C127.60306041 11.689778 115.22186334 11.70103436 102.84060318 11.72004614 C90.13804852 11.73940227 77.43553111 11.74768445 64.7329616 11.74392289 C57.59722013 11.74200743 50.46154562 11.74453176 43.32581615 11.75863743 C36.61752104 11.77176354 29.90940934 11.76932154 23.20110607 11.75622654 C20.73353873 11.75384975 18.26596045 11.75663454 15.79840565 11.76484966 C12.44063582 11.77522575 9.08340528 11.76729012 5.72565556 11.75453854 C4.73967556 11.76191282 3.75369556 11.76928711 2.73783737 11.77688485 C1.39310385 11.76607504 1.39310385 11.76607504 0.02120399 11.75504684 C-0.75423994 11.75510186 -1.52968387 11.75515688 -2.3286261 11.75521356 C-4.88622053 11.27860227 -5.77452135 10.42439736 -7.34039974 8.38031673 C-7.71539974 5.88031673 -7.71539974 5.88031673 -7.34039974 3.38031673 C-5.11645927 0.48090173 -3.59457673 0.00479603 0 0 Z " fill="#B5C3DA" transform="translate(82.34039974212646,233.61968326568604)"/>
<path d="M0 0 C0.00546844 1.82164169 0.00546844 1.82164169 0.01104736 3.68008423 C0.04799605 15.12753643 0.10576762 26.57471959 0.18390274 38.02196693 C0.22340392 43.9070713 0.2555796 49.79202544 0.27099609 55.67724609 C0.28614504 61.35732958 0.32055988 67.03700015 0.36830902 72.71689987 C0.38314089 74.8833698 0.39104205 77.04989868 0.39188385 79.21641922 C0.39424975 82.25231143 0.42130008 85.28705901 0.45410156 88.32275391 C0.4490712 89.21755463 0.44404083 90.11235535 0.43885803 91.03427124 C0.53005907 96.49365823 1.32177771 99.695257 5 104 C8.12503751 106.08335834 8.81697025 106.25129673 12.36719036 106.26171303 C13.71377398 106.27291127 13.71377398 106.27291127 15.08756131 106.28433573 C16.07490555 106.282401 17.06224979 106.28046626 18.07951355 106.2784729 C19.65144257 106.2871615 19.65144257 106.2871615 21.25512773 106.29602563 C24.78364128 106.31309645 28.31202459 106.31590824 31.84057617 106.31884766 C34.36315738 106.32814094 36.8857355 106.3383087 39.40830994 106.34928894 C44.84798993 106.37099117 50.28763341 106.38658257 55.72734642 106.39665604 C63.59228019 106.41123112 71.45714822 106.43676461 79.32204346 106.46498732 C92.08178437 106.51047665 104.84153473 106.54708259 117.60131836 106.578125 C129.99749411 106.60830179 142.39364671 106.64264803 154.78979492 106.68261719 C155.55367762 106.68507874 156.31756032 106.68754028 157.10459097 106.69007643 C160.93670154 106.70245086 164.76881183 106.71490742 168.60092199 106.72740483 C200.40058343 106.83100467 232.20027003 106.92004971 264 107 C263.1320685 109.67612211 262.29257962 111.66900539 260.41988564 113.78757954 C256.8008159 115.60081986 253.24109828 115.42177254 249.28182983 115.39872742 C248.3917692 115.40537424 247.50170856 115.41202107 246.58467638 115.41886932 C243.59458415 115.43755645 240.60489016 115.43488986 237.61474609 115.43237305 C235.47229953 115.44138888 233.32985815 115.45171566 231.18742371 115.46325684 C225.35290565 115.490932 219.51848512 115.50013003 213.68390989 115.50611091 C207.55116674 115.51550627 201.41849568 115.54172917 195.28579712 115.56611633 C183.62855535 115.60989106 171.97132745 115.63835017 160.31402838 115.66143972 C147.18579067 115.6882025 134.05763012 115.73227192 120.92944598 115.77772844 C104.86943586 115.83291213 88.80941303 115.883856 72.74935913 115.92448425 C71.0445865 115.92884189 71.0445865 115.92884189 69.30537403 115.93328756 C63.81726726 115.94674649 58.32917579 115.95757988 52.84105492 115.96302319 C50.77560796 115.96527983 48.7101611 115.96762445 46.64471436 115.97006226 C45.65250134 115.97123206 44.66028832 115.97240187 43.63800824 115.97360712 C38.07848276 115.98361871 32.52001101 116.01844505 26.96085441 116.08321089 C23.75047207 116.12000006 20.54004524 116.14662495 17.3295567 116.1722275 C15.88730485 116.18686708 14.44509513 116.20687026 13.00300288 116.23284471 C11.06775933 116.26767658 9.13219141 116.28284878 7.19668579 116.29695129 C6.1344108 116.31194074 5.07213581 116.32693018 3.97767067 116.34237385 C0.25692512 115.91456093 -3.28829516 114.71170484 -6 112 C-6.10624976 110.60528829 -6.14403812 109.2052825 -6.15390015 107.80656433 C-6.16250061 106.90224167 -6.17110107 105.99791901 -6.17996216 105.06619263 C-6.18422211 104.06619232 -6.18848206 103.06619202 -6.19287109 102.03588867 C-6.20104858 100.9887822 -6.20922607 99.94167572 -6.21765137 98.86283875 C-6.24256097 95.38122134 -6.25903508 91.89964483 -6.2734375 88.41796875 C-6.27876118 87.2323617 -6.28408485 86.04675465 -6.28956985 84.82522011 C-6.31632489 78.55072296 -6.33569277 72.27624589 -6.35009766 66.00170898 C-6.36675645 59.50792915 -6.4115385 53.01465575 -6.4624691 46.52106762 C-6.49606265 41.53944795 -6.50766647 36.55794964 -6.51332474 31.57622719 C-6.52005844 29.18195027 -6.53533494 26.78768192 -6.55921555 24.39351463 C-6.59070127 21.04601706 -6.59092835 17.69990061 -6.58349609 14.35229492 C-6.59990143 13.35836731 -6.61630676 12.3644397 -6.63320923 11.34039307 C-6.57189021 4.61189297 -6.57189021 4.61189297 -3.52603149 1.35298157 C-1 0 -1 0 0 0 Z " fill="#BA173F" transform="translate(6,67)"/>
<path d="M0 0 C3.07745908 1.21465217 6.06176804 2.47647232 9 4 C7.37160894 10.18166287 4.05752905 15.31090634 0.8125 20.75 C-0.46419778 22.91367549 -1.74021671 25.07775166 -3.015625 27.2421875 C-3.67498047 28.35819336 -4.33433594 29.47419922 -5.01367188 30.62402344 C-8.18925356 36.0212633 -11.3137656 41.44764 -14.4375 46.875 C-15.69658348 49.05991376 -16.95569823 51.24480949 -18.21484375 53.4296875 C-19.15239502 55.05729004 -19.15239502 55.05729004 -20.10888672 56.71777344 C-23.23680148 62.14659942 -26.36858448 67.57319281 -29.5 73 C-30.75001879 75.16665583 -32.00001878 77.3333225 -33.25 79.5 C-50.75 109.83333333 -68.25 140.16666667 -85.75 170.5 C-86.3694751 171.57386963 -86.9889502 172.64773926 -87.62719727 173.75415039 C-88.86947806 175.90721037 -90.11214988 178.06004478 -91.35522461 180.21264648 C-94.25836112 185.24101461 -97.15778867 190.27139814 -100.04275513 195.31021118 C-101.05877184 197.08432545 -102.07606928 198.85769919 -103.09375 200.63085938 C-104.36582292 202.84815314 -105.63552285 205.06681075 -106.90234375 207.28710938 C-110.38537955 213.35146171 -114.02848736 219.24280382 -118 225 C-121.81583379 224.34820749 -124.02881405 223.53101025 -127 221 C-125.65544302 217.45565573 -124.08771656 214.19200807 -122.234375 210.88671875 C-121.68152832 209.89889404 -121.12868164 208.91106934 -120.55908203 207.89331055 C-119.66358643 206.30643433 -119.66358643 206.30643433 -118.75 204.6875 C-118.12593262 203.57737549 -117.50186523 202.46725098 -116.85888672 201.32348633 C-112.11630308 192.91412229 -107.27753894 184.56308564 -102.39355469 176.23510742 C-97.87329316 168.52145537 -93.42523955 160.76834125 -89 153 C-83.46046897 143.27857016 -77.86624813 133.59104696 -72.21655273 123.93310547 C-66.06233258 113.40915375 -59.97630004 102.84619863 -53.89111328 92.28222656 C-50.76319852 86.85340058 -47.63141552 81.42680719 -44.5 76 C-43.24998121 73.83334417 -41.99998122 71.6666775 -40.75 69.5 C-38.25 65.16666667 -35.75 60.83333333 -33.25 56.5 C-32.63060547 55.4262915 -32.01121094 54.35258301 -31.37304688 53.24633789 C-30.129877 51.09169376 -28.88639025 48.93723243 -27.64257812 46.78295898 C-24.75016853 41.77245879 -21.86064773 36.76037365 -18.98303223 31.74136353 C-17.97451686 29.98271251 -16.9649523 28.22466791 -15.95507812 26.46679688 C-14.69649482 24.27527769 -13.43983013 22.08265496 -12.18554688 19.88867188 C-8.30468668 13.13727598 -4.23641368 6.53408865 0 0 Z " fill="#F0B916" transform="translate(460,170)"/>
<path d="M0 0 C3.40312738 1.05875074 6.01353231 2.00902154 9 4 C7.70891809 7.39002721 6.24218459 10.52160831 4.453125 13.67578125 C3.94539551 14.57337158 3.43766602 15.47096191 2.91455078 16.39575195 C2.36524902 17.35827881 1.81594727 18.32080566 1.25 19.3125 C0.38544189 20.83460083 0.38544189 20.83460083 -0.49658203 22.38745117 C-5.73183989 31.58060921 -11.06333425 40.71680862 -16.40625 49.84765625 C-25.73775528 65.80340968 -34.91869936 81.84607046 -44.07608032 97.90216064 C-49.25985125 106.98795878 -54.50194021 116.03821041 -59.78369141 125.06738281 C-65.93792989 135.59111319 -72.02379087 146.1539592 -78.10888672 156.71777344 C-81.23680149 162.14659944 -84.36860767 167.57317941 -87.5 173 C-88.74089474 175.15103629 -89.98178014 177.30207797 -91.22265625 179.453125 C-93.47847754 183.36329371 -95.73483378 187.27315265 -97.9919281 191.18258667 C-108.03201808 208.57060073 -108.03201808 208.57060073 -118 226 C-122.455 223.525 -122.455 223.525 -127 221 C-118.52876953 205.4001637 -109.94559439 189.85180052 -100.88842773 174.58325195 C-97.14652161 168.2716483 -93.47567329 161.92007734 -89.8125 155.5625 C-89.17449463 154.45527588 -88.53648926 153.34805176 -87.87915039 152.20727539 C-86.57110523 149.93662932 -85.26324552 147.66587642 -83.95556641 145.39501953 C-80.80667946 139.9283002 -77.65316736 134.46425113 -74.5 129 C-73.2499765 126.83334689 -71.99997653 124.66668021 -70.75 122.5 C-58.25 100.83333333 -45.75 79.16666667 -33.25 57.5 C-32.63060547 56.42637207 -32.01121094 55.35274414 -31.37304688 54.24658203 C-30.1295949 52.09128689 -28.88610564 49.93601327 -27.64257812 47.78076172 C-24.75537125 42.77662326 -21.8684957 37.7722948 -18.98303223 32.76715088 C-17.97380896 31.01658759 -16.96446164 29.26609589 -15.95507812 27.515625 C-14.6983234 25.33607835 -13.44179414 23.15640168 -12.18554688 20.9765625 C-8.14583558 13.97138717 -4.0806316 6.98141493 0 0 Z " fill="#FEC927" transform="translate(451,165)"/>
<path d="M0 0 C7.10964472 4.12880317 12.77276583 8.98396078 15.7578125 16.81640625 C19.02827954 29.42837973 14.84969522 38.30636842 8.60424805 48.9855957 C7.4375 50.4375 7.4375 50.4375 4.4375 51.4375 C1.85986328 50.27270508 1.85986328 50.27270508 -1.2421875 48.45703125 C-2.0838295 47.97033211 -2.0838295 47.97033211 -2.94247437 47.47380066 C-4.77976975 46.40854666 -6.60846828 45.32937008 -8.4375 44.25 C-9.69699477 43.51655305 -10.95709025 42.78413672 -12.21777344 42.05273438 C-14.77054695 40.57039579 -17.32040976 39.0832328 -19.86816406 37.59228516 C-25.15960957 34.49989759 -30.48634427 31.46957828 -35.8125 28.4375 C-37.52622264 27.45865011 -39.23978398 26.47951771 -40.953125 25.5 C-42.0054834 24.89865234 -42.0054834 24.89865234 -43.07910156 24.28515625 C-43.56862305 24.00542969 -44.05814453 23.72570312 -44.5625 23.4375 C-40.73033845 13.28041161 -35.28837177 3.34697728 -25.29296875 -1.7109375 C-17.086864 -4.27020908 -7.71956435 -3.65509676 0 0 Z " fill="#FC485E" transform="translate(493.5625,118.5625)"/>
<path d="M0 0 C0.71436267 -0.00467997 1.42872535 -0.00935994 2.16473538 -0.01418173 C4.5646873 -0.02617265 6.9640725 -0.01665882 9.36402893 -0.00723267 C11.08210077 -0.0112966 12.80017 -0.01663747 14.51823425 -0.02316284 C19.18972872 -0.03686456 23.86102489 -0.03152578 28.53252292 -0.02202559 C33.41671718 -0.01444253 38.3008942 -0.02147094 43.18508911 -0.02618408 C51.38913528 -0.03164611 59.59310051 -0.02443885 67.7971344 -0.01016235 C77.2862454 0.00615958 86.77516299 0.00088077 96.26426929 -0.01564157 C104.40531841 -0.0292502 112.54630925 -0.03117898 120.68736607 -0.02332556 C125.55226472 -0.01864492 130.41707243 -0.01803483 135.28196526 -0.02793503 C139.85629336 -0.03659316 144.43037189 -0.03060392 149.004673 -0.01325226 C150.68488844 -0.009281 152.36512482 -0.01043236 154.04533195 -0.01704025 C156.33649569 -0.02522095 158.62685638 -0.01497696 160.91796875 0 C162.2008953 0.00113108 163.48382185 0.00226215 164.80562496 0.00342751 C168.19873636 0.40163648 169.57786966 1.06168443 172.0224762 3.38095093 C171.7099762 6.25595093 171.7099762 6.25595093 171.0224762 9.38095093 C167.31647002 11.85162171 165.46473653 11.63456936 161.03822327 11.64164734 C160.32315503 11.64547289 159.60808679 11.64929843 158.87134981 11.65323991 C156.46917709 11.66357976 154.06724294 11.65957597 151.66505432 11.65560913 C149.9453611 11.65995503 148.22566983 11.66513776 146.50598145 11.6710968 C141.83046519 11.68451022 137.15502966 11.68506295 132.47949791 11.6825335 C128.58014347 11.68146553 124.68080549 11.68634262 120.78145456 11.69113892 C111.5852527 11.70224189 102.38909168 11.70266686 93.19288635 11.69662476 C83.69581121 11.69058109 74.19888408 11.70290414 64.7018342 11.72419482 C56.55571244 11.74178759 48.4096379 11.74781593 40.26349783 11.74455708 C35.39471 11.7427406 30.52602777 11.74541675 25.65725708 11.75927162 C21.08048355 11.77180786 16.50394151 11.76994596 11.92717171 11.75686073 C10.24491868 11.75448632 8.56264957 11.75726042 6.88041496 11.76548386 C4.5889143 11.77588027 2.29820073 11.76790891 0.00672913 11.75517273 C-1.27711922 11.75534047 -2.56096756 11.75550821 -3.8837204 11.75568104 C-6.9775238 11.38095093 -6.9775238 11.38095093 -8.89060211 10.01381207 C-10.45501791 7.6636209 -10.39167446 6.1419553 -9.9775238 3.38095093 C-7.41693144 -0.46329848 -4.33721099 0.00382497 0 0 Z " fill="#B5C3DA" transform="translate(84.97752380371094,388.6190490722656)"/>
<path d="M0 0 C0.72238092 -0.00382555 1.44476184 -0.00765109 2.18903309 -0.01159257 C4.6219497 -0.02195336 7.05463165 -0.01792466 9.48756409 -0.01396179 C11.22681396 -0.01830658 12.96606192 -0.02348894 14.70530701 -0.02944946 C19.43873157 -0.042876 24.17207648 -0.04341408 28.90551639 -0.04088616 C32.85204181 -0.03981891 36.79855095 -0.04469352 40.7450729 -0.04949158 C50.05296638 -0.06059945 59.36081952 -0.06101702 68.66871643 -0.05497742 C78.28221766 -0.04893558 87.89557261 -0.06125104 97.50904888 -0.08254749 C105.7528141 -0.10014052 113.99653266 -0.10616848 122.24031597 -0.10290974 C127.16836302 -0.10109304 132.09630574 -0.10377146 137.02433586 -0.11762428 C141.65772872 -0.13016069 146.2908929 -0.12829844 150.92428207 -0.11521339 C152.62749749 -0.11283888 154.33072879 -0.11561343 156.03392601 -0.12383652 C158.35394078 -0.13423225 160.67317801 -0.12626202 162.99316406 -0.11352539 C164.29305991 -0.11369313 165.59295576 -0.11386087 166.93224239 -0.1140337 C170.06007385 0.26069641 170.06007385 0.26069641 172.01347446 1.62392902 C173.06007385 3.26069641 173.06007385 3.26069641 172.87257385 5.82319641 C172.06007385 8.26069641 172.06007385 8.26069641 170.06007385 10.26069641 C167.0737009 10.515172 167.0737009 10.515172 163.15811157 10.52139282 C162.4398142 10.52521837 161.72151684 10.52904392 160.98145288 10.53298539 C158.56235539 10.54334596 156.1434939 10.53931753 153.72438049 10.53535461 C151.9949827 10.53969941 150.26558683 10.54488178 148.53619385 10.55084229 C143.82962781 10.56426869 139.12314188 10.56480692 134.41656041 10.56227899 C130.4924029 10.56121172 126.56826177 10.56608637 122.64410776 10.57088441 C113.38895192 10.58199222 104.13383666 10.58240987 94.87867737 10.57637024 C85.31970738 10.57032842 75.76088452 10.58264384 66.20193964 10.60394031 C58.00488311 10.62153346 49.8078735 10.62756128 41.61079878 10.62430257 C36.71069717 10.62248588 31.8107005 10.6251641 26.91061592 10.63901711 C22.30348745 10.65155371 17.69658895 10.64969108 13.08946419 10.63660622 C11.39592411 10.63423174 9.70236806 10.6370061 8.00884628 10.64522934 C5.70196719 10.65562544 3.39587 10.64765457 1.08901978 10.63491821 C-0.20350173 10.63508595 -1.49602324 10.6352537 -2.82771206 10.63542652 C-5.93992615 10.26069641 -5.93992615 10.26069641 -7.85970402 8.8974638 C-9.38835938 6.58122423 -9.28777883 4.97394736 -8.93992615 2.26069641 C-6.05950094 -0.61972879 -4.03618485 0.00637602 0 0 Z " fill="#B4C2D9" transform="translate(83.93992614746094,337.7393035888672)"/>
<path d="M0 0 C0.72238092 -0.00382555 1.44476184 -0.00765109 2.18903309 -0.01159257 C4.6219497 -0.02195336 7.05463165 -0.01792466 9.48756409 -0.01396179 C11.22681396 -0.01830658 12.96606192 -0.02348894 14.70530701 -0.02944946 C19.43873157 -0.042876 24.17207648 -0.04341408 28.90551639 -0.04088616 C32.85204181 -0.03981891 36.79855095 -0.04469352 40.7450729 -0.04949158 C50.05296638 -0.06059945 59.36081952 -0.06101702 68.66871643 -0.05497742 C78.28221766 -0.04893558 87.89557261 -0.06125104 97.50904888 -0.08254749 C105.7528141 -0.10014052 113.99653266 -0.10616848 122.24031597 -0.10290974 C127.16836302 -0.10109304 132.09630574 -0.10377146 137.02433586 -0.11762428 C141.65772872 -0.13016069 146.2908929 -0.12829844 150.92428207 -0.11521339 C152.62749749 -0.11283888 154.33072879 -0.11561343 156.03392601 -0.12383652 C158.35394078 -0.13423225 160.67317801 -0.12626202 162.99316406 -0.11352539 C164.29305991 -0.11369313 165.59295576 -0.11386087 166.93224239 -0.1140337 C170.06007385 0.26069641 170.06007385 0.26069641 172.01347446 1.62392902 C173.06007385 3.26069641 173.06007385 3.26069641 172.87257385 5.82319641 C172.06007385 8.26069641 172.06007385 8.26069641 170.06007385 10.26069641 C167.0737009 10.515172 167.0737009 10.515172 163.15811157 10.52139282 C162.4398142 10.52521837 161.72151684 10.52904392 160.98145288 10.53298539 C158.56235539 10.54334596 156.1434939 10.53931753 153.72438049 10.53535461 C151.9949827 10.53969941 150.26558683 10.54488178 148.53619385 10.55084229 C143.82962781 10.56426869 139.12314188 10.56480692 134.41656041 10.56227899 C130.4924029 10.56121172 126.56826177 10.56608637 122.64410776 10.57088441 C113.38895192 10.58199222 104.13383666 10.58240987 94.87867737 10.57637024 C85.31970738 10.57032842 75.76088452 10.58264384 66.20193964 10.60394031 C58.00488311 10.62153346 49.8078735 10.62756128 41.61079878 10.62430257 C36.71069717 10.62248588 31.8107005 10.6251641 26.91061592 10.63901711 C22.30348745 10.65155371 17.69658895 10.64969108 13.08946419 10.63660622 C11.39592411 10.63423174 9.70236806 10.6370061 8.00884628 10.64522934 C5.70196719 10.65562544 3.39587 10.64765457 1.08901978 10.63491821 C-0.20350173 10.63508595 -1.49602324 10.6352537 -2.82771206 10.63542652 C-5.93992615 10.26069641 -5.93992615 10.26069641 -7.85970402 8.8974638 C-9.38835938 6.58122423 -9.28777883 4.97394736 -8.93992615 2.26069641 C-6.05950094 -0.61972879 -4.03618485 0.00637602 0 0 Z " fill="#B4C2D9" transform="translate(83.93992614746094,440.7393035888672)"/>
<path d="M0 0 C5.97784681 3.48608563 11.95510514 6.97316572 17.9296875 10.46484375 C28.59143543 16.69360483 39.25802832 22.91036112 50 29 C46.2970242 32.94187747 42.43031929 35.94678615 37.9375 38.9375 C36.51238111 39.9013986 35.08793424 40.86629131 33.6640625 41.83203125 C32.9102832 42.3420166 32.15650391 42.85200195 31.37988281 43.37744141 C27.16247581 46.25278886 22.98971851 49.1917224 18.8125 52.125 C17.12376546 53.30738814 15.43496473 54.48968175 13.74609375 55.671875 C10.796149 57.73831574 7.85085978 59.8110598 4.91015625 61.890625 C3.73184148 62.71885051 2.55346151 63.54698329 1.375 64.375 C0.37210937 65.08398438 -0.63078125 65.79296875 -1.6640625 66.5234375 C-4 68 -4 68 -6 68 C-3.09332281 29.64525865 -3.09332281 29.64525865 -1.875 15.4375 C-1.76212646 14.09643188 -1.76212646 14.09643188 -1.64697266 12.72827148 C-1.57526855 11.90915283 -1.50356445 11.09003418 -1.4296875 10.24609375 C-1.37022949 9.56216553 -1.31077148 8.8782373 -1.24951172 8.17358398 C-0.93458916 5.43018322 -0.4707039 2.72051309 0 0 Z " fill="#FEDFC9" transform="translate(312,378)"/>
<path d="M0 0 C4.85623939 1.83365921 6.73990528 5.34899829 9.51953125 9.5859375 C10.05642578 10.36710937 10.59332031 11.14828125 11.14648438 11.953125 C15.025589 17.66661076 15.025589 17.66661076 16.20703125 21.2109375 C16.86703125 21.2109375 17.52703125 21.2109375 18.20703125 21.2109375 C18.45710938 20.499375 18.7071875 19.7878125 18.96484375 19.0546875 C20.33723758 15.91285508 22.03630614 13.45915689 24.08203125 10.7109375 C24.76007813 9.793125 25.438125 8.8753125 26.13671875 7.9296875 C26.81992188 7.0325 27.503125 6.1353125 28.20703125 5.2109375 C28.89925781 4.2828125 29.59148437 3.3546875 30.3046875 2.3984375 C32.20703125 0.2109375 32.20703125 0.2109375 34.76953125 -0.2890625 C37.66762749 0.30541878 38.43259384 0.87775327 40.20703125 3.2109375 C40.58125305 5.63952637 40.58125305 5.63952637 40.5793457 8.55273438 C40.58868889 10.18958191 40.58868889 10.18958191 40.59822083 11.85949707 C40.58901108 13.03765991 40.57980133 14.21582275 40.5703125 15.4296875 C40.57106026 17.24382141 40.57106026 17.24382141 40.57182312 19.09460449 C40.56948106 21.65341839 40.55974485 24.21223453 40.54321289 26.77099609 C40.51962587 30.6951958 40.52265061 34.61871621 40.52929688 38.54296875 C40.52372014 41.02604573 40.5166103 43.50911984 40.5078125 45.9921875 C40.50917961 47.75943176 40.50917961 47.75943176 40.51057434 49.56237793 C40.50104233 50.65360962 40.49151031 51.74484131 40.48168945 52.86914062 C40.47708206 53.83049927 40.47247467 54.79185791 40.46772766 55.78234863 C40.20703125 58.2109375 40.20703125 58.2109375 38.20703125 61.2109375 C35.20703125 61.5234375 35.20703125 61.5234375 32.20703125 61.2109375 C29.26510341 58.26900966 29.85165728 55.08902777 29.79296875 51.140625 C29.7736026 50.34439728 29.75423645 49.54816956 29.73428345 48.72781372 C29.67442651 46.18063116 29.62807846 43.63340355 29.58203125 41.0859375 C29.54385704 39.3606572 29.50480564 37.63539607 29.46484375 35.91015625 C29.36872016 31.67723874 29.28471217 27.44423201 29.20703125 23.2109375 C28.44519531 24.49291016 28.44519531 24.49291016 27.66796875 25.80078125 C26.97960937 26.90550781 26.29125 28.01023437 25.58203125 29.1484375 C24.57269531 30.80166016 24.57269531 30.80166016 23.54296875 32.48828125 C21.20703125 35.2109375 21.20703125 35.2109375 18.09375 36.2109375 C15.20703125 36.2109375 15.20703125 36.2109375 12.64453125 34.2734375 C10.74506699 31.88693112 9.14666254 29.60218626 7.5546875 27.01953125 C7.11261963 26.30466553 6.67055176 25.5897998 6.21508789 24.85327148 C5.71609985 24.04031616 5.71609985 24.04031616 5.20703125 23.2109375 C5.18721191 24.29101074 5.16739258 25.37108398 5.14697266 26.48388672 C5.07101502 30.48347663 4.98228309 34.48269802 4.88964844 38.48193359 C4.85131784 40.21428157 4.81647219 41.94671024 4.78515625 43.67919922 C4.7395936 46.16663499 4.68158622 48.65351316 4.62109375 51.140625 C4.60376694 52.30632523 4.60376694 52.30632523 4.58609009 53.49557495 C4.43477466 58.98319409 4.43477466 58.98319409 2.20703125 61.2109375 C-0.79296875 61.4609375 -0.79296875 61.4609375 -3.79296875 61.2109375 C-6.396145 58.60776125 -6.05060644 57.51612625 -6.06762695 53.89086914 C-6.07715897 52.77954117 -6.08669098 51.6682132 -6.09651184 50.52320862 C-6.09560043 49.31801071 -6.09468903 48.11281281 -6.09375 46.87109375 C-6.09803513 45.63806015 -6.10232025 44.40502655 -6.10673523 43.1346283 C-6.113963 39.85269039 -6.1108439 36.57093492 -6.10516357 33.28900146 C-6.10546822 31.27694444 -6.11550323 29.26518186 -6.12915039 27.25317383 C-6.1535792 23.39650556 -6.15780804 19.54032956 -6.15625 15.68359375 C-6.16545975 14.48042007 -6.17466949 13.2772464 -6.18415833 12.03761292 C-6.17792953 10.92313278 -6.17170074 9.80865265 -6.1652832 8.66040039 C-6.16591263 7.67826065 -6.16654205 6.69612091 -6.16719055 5.68421936 C-5.79296875 3.2109375 -5.79296875 3.2109375 -4.44425964 1.38352966 C-2.79296875 0.2109375 -2.79296875 0.2109375 0 0 Z " fill="#D9E2F5" transform="translate(200.79296875,93.7890625)"/>
<path d="M0 0 C1.05832031 -0.03738281 2.11664063 -0.07476562 3.20703125 -0.11328125 C6.1875 0.3125 6.1875 0.3125 8.39453125 1.67578125 C11.14775451 5.72463898 11.9623617 10.08391683 13.0625 14.8125 C13.57237076 16.88619373 14.08545773 18.959099 14.6015625 21.03125 C14.86098633 22.07796875 15.12041016 23.1246875 15.38769531 24.203125 C17.01997062 30.54886929 18.97257741 36.79873105 20.890625 43.0625 C21.11016846 43.78219971 21.32971191 44.50189941 21.5559082 45.2434082 C21.96996722 46.59986362 22.38764769 47.95522004 22.80932617 49.30932617 C24.04237906 53.38895748 24.4402583 56.16876099 23.1875 60.3125 C20.1875 62.3125 20.1875 62.3125 17.75 62.5 C14.17497664 60.84328186 13.51531715 58.63863772 11.984375 55.125 C10.89865479 51.29304633 10.62732615 47.27093533 10.1875 43.3125 C3.9175 43.3125 -2.3525 43.3125 -8.8125 43.3125 C-9.1425 45.2925 -9.4725 47.2725 -9.8125 49.3125 C-10.23497957 51.05077438 -10.69183516 52.78116226 -11.1875 54.5 C-11.42210937 55.33917969 -11.65671875 56.17835938 -11.8984375 57.04296875 C-12.87579036 59.46964402 -13.73802398 60.73194684 -15.8125 62.3125 C-19.15442692 62.06796876 -20.41793557 61.70706443 -22.8125 59.3125 C-23.15219012 52.03903012 -20.72350022 45.00777609 -18.5 38.1875 C-16.32163558 31.3095622 -14.26496916 24.46411085 -12.625 17.4375 C-8.48822977 0.19501374 -8.48822977 0.19501374 0 0 Z " fill="#D9E0F3" transform="translate(156.8125,93.6875)"/>
<path d="M0 0 C1.14825256 -0.00430527 1.14825256 -0.00430527 2.31970215 -0.00869751 C3.93693787 -0.0107375 5.5541983 -0.00521213 7.17138672 0.00732422 C9.64737091 0.02337992 12.12172285 0.00747453 14.59765625 -0.01171875 C16.16927444 -0.00973631 17.74089161 -0.0058926 19.3125 0 C20.05318726 -0.00607269 20.79387451 -0.01214539 21.55700684 -0.0184021 C26.65757305 0.05141876 26.65757305 0.05141876 29.12304688 1.76708984 C30.61629099 4.12480656 30.56610868 5.66604629 30.15625 8.3984375 C29.03393555 10.03637695 29.03393555 10.03637695 27.15625 11.3984375 C24.24536133 11.73901367 24.24536133 11.73901367 20.73828125 11.69140625 C19.48466797 11.68173828 18.23105469 11.67207031 16.93945312 11.66210938 C15.62912109 11.63697266 14.31878906 11.61183594 12.96875 11.5859375 C11.63347837 11.57088717 10.29819063 11.55719937 8.96289062 11.54492188 C5.69360424 11.50951444 2.42512907 11.4601264 -0.84375 11.3984375 C-0.84375 15.3584375 -0.84375 19.3184375 -0.84375 23.3984375 C0.99832031 23.36363281 2.84039062 23.32882813 4.73828125 23.29296875 C7.1484284 23.26483474 9.55858539 23.23753417 11.96875 23.2109375 C13.18369141 23.18580078 14.39863281 23.16066406 15.65039062 23.13476562 C17.39545898 23.12026367 17.39545898 23.12026367 19.17578125 23.10546875 C20.24932861 23.0897583 21.32287598 23.07404785 22.42895508 23.05786133 C25.15625 23.3984375 25.15625 23.3984375 27.04174805 24.72143555 C28.15625 26.3984375 28.15625 26.3984375 27.96875 29.5234375 C27.700625 30.4721875 27.4325 31.4209375 27.15625 32.3984375 C24.44223706 33.75544397 22.30778684 33.5108236 19.2734375 33.49609375 C18.10683594 33.49287109 16.94023438 33.48964844 15.73828125 33.48632812 C14.51496094 33.47794922 13.29164062 33.46957031 12.03125 33.4609375 C10.80019531 33.45642578 9.56914063 33.45191406 8.30078125 33.44726562 C5.25258361 33.43545091 2.20441084 33.417515 -0.84375 33.3984375 C-0.84375 39.3384375 -0.84375 45.2784375 -0.84375 51.3984375 C1.14269531 51.36363281 3.12914062 51.32882813 5.17578125 51.29296875 C7.10195795 51.27210763 9.02813746 51.25135321 10.9543457 51.23364258 C12.94952701 51.21115417 14.94451213 51.17303552 16.93945312 51.13476562 C18.19306641 51.12509766 19.44667969 51.11542969 20.73828125 51.10546875 C21.89561768 51.0897583 23.0529541 51.07404785 24.24536133 51.05786133 C27.15625 51.3984375 27.15625 51.3984375 29.03393555 52.76049805 C30.6428292 55.10856582 30.57356279 56.61635222 30.15625 59.3984375 C29.12304688 61.02978516 29.12304688 61.02978516 27.15625 62.3984375 C24.46293989 62.6966522 22.00549206 62.81895411 19.3125 62.796875 C18.16424744 62.80118027 18.16424744 62.80118027 16.99279785 62.80557251 C15.37556213 62.8076125 13.7583017 62.80208713 12.14111328 62.78955078 C9.66512909 62.77349508 7.19077715 62.78940047 4.71484375 62.80859375 C3.14322556 62.80661131 1.57160839 62.8027676 0 62.796875 C-0.74068726 62.80294769 -1.48137451 62.80902039 -2.24450684 62.8152771 C-7.34732643 62.74542539 -7.34732643 62.74542539 -9.53860474 61.21377563 C-11.33087968 58.72088451 -11.22448247 57.0215032 -11.23193359 53.96484375 C-11.24139008 52.85359131 -11.25084656 51.74233887 -11.2605896 50.59741211 C-11.25451691 49.39737549 -11.24844421 48.19733887 -11.2421875 46.9609375 C-11.24505768 45.72931885 -11.24792786 44.4977002 -11.25088501 43.22875977 C-11.25345158 39.95495793 -11.2413661 36.68158213 -11.22460938 33.40783691 C-11.21875553 31.40033365 -11.22458795 29.39322381 -11.23486328 27.38574219 C-11.2533598 23.53562055 -11.25115992 19.68608316 -11.2421875 15.8359375 C-11.24826019 14.63590088 -11.25433289 13.43586426 -11.2605896 12.19946289 C-11.25113312 11.08821045 -11.24167664 9.97695801 -11.23193359 8.83203125 C-11.22954681 7.85290771 -11.22716003 6.87378418 -11.22470093 5.86499023 C-10.84375 3.3984375 -10.84375 3.3984375 -9.53860474 1.58309937 C-6.66858297 -0.42297541 -3.3771311 -0.02768818 0 0 Z " fill="#D9E0F3" transform="translate(38.84375,93.6015625)"/>
<path d="M0 0 C3.29439827 1.18781078 4.20111844 2.62605083 6.09765625 5.5390625 C6.68804687 6.43882813 7.2784375 7.33859375 7.88671875 8.265625 C13.53515625 17.34060278 13.53515625 17.34060278 13.53515625 19.9140625 C14.19515625 19.9140625 14.85515625 19.9140625 15.53515625 19.9140625 C15.78265625 19.22699219 16.03015625 18.53992188 16.28515625 17.83203125 C17.74190876 14.4314246 19.57972356 11.35454631 21.53515625 8.2265625 C21.8909375 7.64583984 22.24671875 7.06511719 22.61328125 6.46679688 C24.11178833 4.0484972 25.51640194 1.93281681 27.53515625 -0.0859375 C30.36901792 -0.4492531 31.94037776 -0.4428046 34.41015625 1.0390625 C35.53515625 2.9140625 35.53515625 2.9140625 35.48828125 5.40625 C33.84788491 11.44344636 30.0758342 16.38014527 26.6640625 21.5703125 C23.53835135 26.42327553 23.53835135 26.42327553 22.28515625 31.9453125 C24.57651946 37.38730012 28.04767469 42.09454205 31.40625 46.92578125 C35.52239946 53.10491731 35.52239946 53.10491731 35.58984375 57.3828125 C34.53515625 59.9140625 34.53515625 59.9140625 31.53515625 61.9140625 C29.16796875 62.03125 29.16796875 62.03125 26.53515625 60.9140625 C24.49924232 58.48052118 22.97547285 55.79153053 21.41015625 53.0390625 C20.55697603 51.58122603 19.70031957 50.12541723 18.83984375 48.671875 C18.46843262 48.0236377 18.09702148 47.37540039 17.71435547 46.70751953 C16.49556741 44.8538514 15.15345444 43.42396909 13.53515625 41.9140625 C13.28765625 42.60113281 13.04015625 43.28820312 12.78515625 43.99609375 C11.32840374 47.3967004 9.49058894 50.47357869 7.53515625 53.6015625 C7.179375 54.18228516 6.82359375 54.76300781 6.45703125 55.36132812 C4.95852417 57.7796278 3.55391056 59.89530819 1.53515625 61.9140625 C-1.52734375 61.6640625 -1.52734375 61.6640625 -4.46484375 60.9140625 C-5.87349749 58.09675503 -5.70481691 56.04113791 -5.46484375 52.9140625 C-4.23974609 50.38452148 -4.23974609 50.38452148 -2.55078125 47.91015625 C-1.95523438 47.00458984 -1.3596875 46.09902344 -0.74609375 45.16601562 C0.52901241 43.28340499 1.80768638 41.40320612 3.08984375 39.52539062 C3.6828125 38.62111328 4.27578125 37.71683594 4.88671875 36.78515625 C5.44182129 35.96974365 5.99692383 35.15433105 6.56884766 34.31420898 C7.80872612 31.92649844 7.80872612 31.92649844 6.86328125 29.38671875 C5.60481451 27.04374979 4.32780022 24.74536838 2.93359375 22.48046875 C2.44375 21.66642578 1.95390625 20.85238281 1.44921875 20.01367188 C0.42279778 18.32164035 -0.61108201 16.63411117 -1.65234375 14.95117188 C-6.48885141 6.85833829 -6.48885141 6.85833829 -5.46484375 1.9140625 C-2.46484375 -0.0859375 -2.46484375 -0.0859375 0 0 Z " fill="#D9DFF2" transform="translate(88.46484375,94.0859375)"/>
<path d="M0 0 C4.05435346 0.5921677 6.94528628 1.89588102 10.47265625 3.95703125 C11.52855957 4.5698999 12.58446289 5.18276855 13.67236328 5.81420898 C14.7911084 6.47364502 15.90985352 7.13308105 17.0625 7.8125 C18.2209053 8.48885289 19.37959943 9.16471132 20.53857422 9.84008789 C30.74686423 15.80139522 40.89322572 21.86832579 51 28 C49.73829891 32.17708809 48.17688391 35.67196937 45.875 39.375 C45.33617187 40.24898437 44.79734375 41.12296875 44.2421875 42.0234375 C43.83226562 42.67570312 43.42234375 43.32796875 43 44 C38.92501057 43.40836507 36.03231609 42.08635901 32.4921875 40.0078125 C31.4312085 39.3900293 30.37022949 38.77224609 29.27709961 38.13574219 C28.15440674 37.47219727 27.03171387 36.80865234 25.875 36.125 C24.71331797 35.44374566 23.55128702 34.76308595 22.38891602 34.08300781 C20.62826191 33.05263153 18.86800811 32.02162328 17.10945129 30.9876709 C13.45886055 28.84308109 9.78849174 26.73853381 6.09765625 24.6640625 C5.21932129 24.1676123 4.34098633 23.67116211 3.43603516 23.15966797 C1.80264889 22.23811508 0.16572459 21.32279787 -1.47509766 20.41455078 C-6.88793766 17.33618703 -6.88793766 17.33618703 -8 14 C-6.7689092 11.49998346 -5.50257845 9.18565407 -4.0625 6.8125 C-3.48338867 5.83120117 -3.48338867 5.83120117 -2.89257812 4.83007812 C-1.93746912 3.21464684 -0.96989934 1.60659475 0 0 Z " fill="#D9E3F2" transform="translate(448,142)"/>
<path d="M0 0 C0 20.13 0 40.26 0 61 C-5.94 61 -11.88 61 -18 61 C-18.09898193 53.56188833 -18.17152403 46.12416129 -18.21972656 38.68554688 C-18.23982405 36.15585653 -18.26710668 33.62621254 -18.30175781 31.09667969 C-18.35035556 27.45756583 -18.37298812 23.819067 -18.390625 20.1796875 C-18.42159271 18.48717361 -18.42159271 18.48717361 -18.45318604 16.76046753 C-18.45495833 10.53859322 -18.26072044 6.68915627 -14 2 C-9.30835888 -0.94903156 -6.03147378 0 0 0 Z " fill="#C2CFE4" transform="translate(59,6)"/>
<path d="M0 0 C5.94 3.465 5.94 3.465 12 7 C11.53404261 14.22233958 11.04780895 21.44048294 10.48828125 28.65625 C10.39788574 29.83340576 10.30749023 31.01056152 10.21435547 32.22338867 C10.03293013 34.57535864 9.84847042 36.92709697 9.66064453 39.27856445 C9.53278564 40.94471802 9.53278564 40.94471802 9.40234375 42.64453125 C9.31791016 43.72057617 9.23347656 44.79662109 9.14648438 45.90527344 C9.00858711 48.8185829 9.14816907 51.59755811 9.33984375 54.50390625 C9.38055634 58.47963143 9.38055634 58.47963143 7.81713867 60.61743164 C6.15943099 62.00135675 4.50376405 63.06274522 2.625 64.125 C2.02171875 64.50914062 1.4184375 64.89328125 0.796875 65.2890625 C-3.55998884 68 -3.55998884 68 -6 68 C-3.09332281 29.64525865 -3.09332281 29.64525865 -1.875 15.4375 C-1.76212646 14.09643188 -1.76212646 14.09643188 -1.64697266 12.72827148 C-1.57526855 11.90915283 -1.50356445 11.09003418 -1.4296875 10.24609375 C-1.37022949 9.56216553 -1.31077148 8.8782373 -1.24951172 8.17358398 C-0.9351864 5.43538606 -0.4531132 2.71867922 0 0 Z " fill="#FEC6A5" transform="translate(312,378)"/>
<path d="M0 0 C0.70318359 -0.00386719 1.40636719 -0.00773437 2.13085938 -0.01171875 C8.38500706 0.12586103 13.10554314 1.9328175 18.3125 5.4375 C18.3125 6.0975 18.3125 6.7575 18.3125 7.4375 C17.23871094 7.53546875 16.16492188 7.6334375 15.05859375 7.734375 C13.62230755 7.88457486 12.18611417 8.03566414 10.75 8.1875 C10.04552734 8.249375 9.34105469 8.31125 8.61523438 8.375 C2.23737692 9.08038516 -2.33734317 10.95630925 -6.859375 15.73046875 C-9.05775549 18.98576293 -11.02916847 22.31853719 -12.9375 25.75 C-13.30101562 26.39517578 -13.66453125 27.04035156 -14.0390625 27.70507812 C-14.92586205 29.28031416 -15.80724563 30.85859714 -16.6875 32.4375 C-21.50464842 30.92275928 -25.38054252 29.02167449 -29.6875 26.4375 C-25.85140856 16.26999549 -20.41056856 6.37239676 -10.42578125 1.28515625 C-6.94057806 0.20628451 -3.61791205 0.01369125 0 0 Z " fill="#BD1D3F" transform="translate(478.6875,115.5625)"/>
<path d="M0 0 C5.31734672 0.81017367 8.554478 3.06143461 13 6 C10.36 11.61 7.72 17.22 5 23 C1.45002848 21.58001139 -1.18729934 20.3878411 -4.3125 18.375 C-5.00988281 17.92898437 -5.70726562 17.48296875 -6.42578125 17.0234375 C-6.94527344 16.68570313 -7.46476562 16.34796875 -8 16 C-6.42986223 10.03347646 -3.24970218 5.17090975 0 0 Z " fill="#B7C2D4" transform="translate(448,142)"/>
<path d="M0 0 C2.20330318 3.30495477 3.04438371 6.12332472 4.125 9.9375 C4.47820312 11.16339844 4.83140625 12.38929687 5.1953125 13.65234375 C6 17 6 17 6 21 C2.04 21 -1.92 21 -6 21 C-5.37942343 18.43635601 -4.75370801 15.87415074 -4.125 13.3125 C-3.95097656 12.59126953 -3.77695313 11.87003906 -3.59765625 11.12695312 C-2.64902134 7.27971155 -1.59509159 3.64284431 0 0 Z " fill="#F9556E" transform="translate(157,106)"/>
</svg>
